<svg width="264" height="174" viewBox="0 0 264 174" fill="none" xmlns="http://www.w3.org/2000/svg">
<path fill-rule="evenodd" clip-rule="evenodd" d="M154.27 38.5671L163.227 136.852L202.914 148.671L242.85 136.852L251.683 38.5671H154.27ZM202.914 139.838V46.405H242.85L235.137 131.004L202.914 139.838Z" fill="#E4A126"/>
<path d="M202.914 46.405V139.838L235.137 131.004L242.85 46.405H202.914Z" fill="#F0BE25"/>
<path fill-rule="evenodd" clip-rule="evenodd" d="M229.538 80.9913H217.097L215.728 68.4258H202.914V55.4871H227.174L229.538 80.9913Z" fill="#F7F7F6"/>
<path d="M177.348 55.4871L174.735 99.2797H202.914V87.4607H188.171L190.038 68.4258H202.914V55.4871H177.348Z" fill="#E2E1E0"/>
<path fill-rule="evenodd" clip-rule="evenodd" d="M214.609 114.831L216.351 99.2797H202.914V87.4607H229.538L226.303 124.535L202.914 131.751V118.439L214.609 114.831Z" fill="#F7F7F6"/>
<path d="M202.914 118.439L188.109 114.831L186.99 105.749H174.673L176.415 124.535L202.914 131.751V118.439Z" fill="#E2E1E0"/>
<path d="M193.335 24.1356V12.1921H199.555V30.3561H184.626V24.1356H193.335Z" fill="white"/>
<path d="M202.541 16.2977V12.1921H219.585V16.2977H211.126L219.585 26.1262V30.3561H202.541V25.2553H210.628L202.541 16.2977Z" fill="white"/>
<path fill-rule="evenodd" clip-rule="evenodd" d="M83.8789 47.3286L92.9093 146.412L132.919 158.327L173.18 146.412L182.085 47.3286H83.8789ZM132.919 149.422V55.2302H173.18L165.403 140.517L132.919 149.422Z" fill="#2062AF"/>
<path d="M132.919 55.2302V149.422L165.403 140.517L173.18 55.2302H132.919Z" fill="#3C9CD7"/>
<path d="M102.538 67.9426L104.169 79.6069H132.92V67.9426H102.538Z" fill="#E5E4E3"/>
<path d="M132.92 79.6069L105.172 92.4H132.92V79.6069Z" fill="#E1E2E3"/>
<path d="M105.172 92.4L106.175 103.688H132.92V92.4H105.172Z" fill="#E7E6E5"/>
<path fill-rule="evenodd" clip-rule="evenodd" d="M132.92 79.6069V92.4V103.688H147.69L146.561 119.115L132.92 123.158V136.199L157.975 128.396L161.11 92.4H132.92L162.114 79.6069L163.368 67.9426H132.92V79.6069Z" fill="#F7F7F6"/>
<path d="M132.92 123.158L120.097 119.115L119.094 110.21H107.053L108.558 128.396L132.92 136.199V123.158Z" fill="#E2E1E0"/>
<path d="M119.123 26.8847V20.739H104.197V38.549H119.123V32.7796H110.719V26.8847H119.123Z" fill="white"/>
<path d="M125.519 26.8847V20.739H140.444V26.8847H134.424L140.444 32.7796V38.549H125.519V32.7796H131.289L125.519 26.8847Z" fill="white"/>
<path d="M146.715 26.8847V20.739H161.641V26.8847H155.62L161.641 32.7796V38.549H146.715V32.7796H152.485L146.715 26.8847Z" fill="white"/>
<path fill-rule="evenodd" clip-rule="evenodd" d="M8.70898 57.2288L17.6666 155.513L57.3537 167.332L97.2896 155.513L106.123 57.2288H8.70898ZM57.3537 158.499V65.0666H97.2896L89.5761 149.666L57.3537 158.499Z" fill="#E44D26"/>
<path d="M57.3537 65.0666V158.499L89.5761 149.666L97.2896 65.0666H57.3537Z" fill="#F16529"/>
<path d="M27.6191 77.6323L30.5664 113.64H57.4763V102.492H41.9711L40.5615 89.5495H57.4763V77.6323H27.6191Z" fill="#EBEBEB"/>
<path d="M57.4763 133.151L43.8932 128.505V120.432H31.7197L33.1293 139.269L57.4763 146.786V133.151Z" fill="#EBEBEB"/>
<path d="M87.3334 89.5495V77.6323H57.4763V89.5495H87.3334Z" fill="white"/>
<path d="M71.7 113.64V128.505L57.4763 133.151V146.786L82.5921 139.269L86.1801 102.492H57.4763V113.64H71.7Z" fill="white"/>
<path d="M17.915 48.5202V30.3562H23.7624V36.2035H29.3608V30.3562H35.457V48.5202H29.3608V42.2997H23.7624V48.5202H17.915Z" fill="white"/>
<path d="M38.8161 36.2035V30.3562H55.6116V36.2035H50.1375V48.5202H43.9169V36.2035H38.8161Z" fill="white"/>
<path d="M58.2242 48.5202V30.3562H64.1959L68.4259 36.7012L72.7803 30.3562H79.1252V48.5202H72.7803V39.687L68.4259 46.032L64.1959 39.687V48.5202H58.2242Z" fill="white"/>
<path d="M82.1111 48.5202V30.3562H88.3316V42.6729H97.1648V48.5202H82.1111Z" fill="white"/>
</svg>
