<svg width="383" height="280" viewBox="0 0 383 280" fill="none" xmlns="http://www.w3.org/2000/svg">
<path d="M187.149 279.989C183.534 279.989 179.334 279.35 174.756 277.488C156.463 270.062 141.418 246.937 129.966 208.71C84.6023 203.362 50.4525 187.112 28.1442 160.154C-10.1078 113.916 1.54964 54.0147 2.0692 51.4922C2.13414 51.1675 2.22073 50.8427 2.31815 50.5179C8.58526 30.2946 19.6041 16.8919 35.0824 10.6777C61.9476 -0.0943722 91.4647 16.0366 92.6987 16.7295C92.8177 16.7944 92.9368 16.8594 93.0559 16.9352C190.267 76.295 242.601 82.769 262.874 82.1411C257.235 60.2723 257.484 26.5163 285.951 2.39564C289.242 -0.397504 293.939 -0.787245 297.641 1.43212C301.343 3.64065 303.237 7.96029 302.349 12.1825C302.187 13.0269 298.355 34.8091 317.341 64.9816C323.868 68.3919 346.555 78.8824 371.233 74.7035C374.946 74.0648 378.702 75.5696 380.964 78.5685C383.226 81.5673 383.638 85.5946 382.025 88.994C373.463 106.998 345.57 135.698 299.091 123.086C289.696 140.007 263.372 178.808 208.808 204.574C214.686 217.446 222.706 239.922 217.078 257.547C214.253 266.37 208.3 273.136 199.824 277.12C198.125 277.997 193.536 280 187.149 280V279.989ZM151.657 210.399C163.207 245.313 175.189 255.544 181.716 258.51C186.381 260.632 189.563 259.604 190.386 259.268C190.7 259.051 190.646 259.127 191.122 258.911C194.64 257.287 196.718 254.97 197.854 251.408C202.292 237.54 190.678 212.401 186.262 204.682C184.822 202.171 184.53 199.15 185.472 196.411C186.403 193.672 188.47 191.464 191.143 190.349C260.753 161.378 284.436 107.485 284.674 106.944C286.784 102.007 292.391 99.5604 297.424 101.401C317.276 108.644 334.345 107.431 348.157 97.7957C349.207 97.0595 350.202 96.3017 351.144 95.533C325.34 93.3678 306.04 81.8596 305.001 81.2317C303.713 80.4522 302.62 79.3912 301.797 78.1354C291.85 62.968 286.709 49.1213 284.154 37.808C274.532 61.0084 285.009 84.9775 285.594 86.2767C286.73 88.81 286.784 91.7222 285.724 94.2989C284.663 96.8755 282.596 98.9 279.998 99.8852C274.337 102.04 220.715 118.485 82.7839 34.322C80.9763 33.3693 59.7071 22.5215 42.5294 29.4719C33.1341 33.2718 26.1634 42.1818 21.7797 55.9635C20.8921 61.0517 13.2287 110.625 43.8391 147.455C63.647 171.295 95.3397 185.314 138.279 189.309C138.571 189.32 138.874 189.353 139.167 189.385C148.778 190.251 158.953 190.608 169.679 190.468C169.723 190.468 169.766 190.468 169.82 190.468C175.33 190.468 179.832 194.896 179.908 200.428C179.984 206.003 175.524 210.583 169.95 210.658C163.694 210.745 157.611 210.658 151.69 210.42L151.657 210.399Z" fill="url(#paint0_linear_52_2)" fill-opacity="0.79"/>
<path d="M71.4192 256.81C68.2369 256.81 65.8989 256.356 64.9789 256.139C55.6702 254.125 48.6346 248.788 44.6189 240.69C33.0264 217.317 51.3623 177 53.4946 172.475C55.8651 167.43 61.8832 165.264 66.9272 167.646C71.9712 170.028 74.1252 176.036 71.7547 181.081C64.849 195.794 57.4887 221.225 62.7059 231.726C63.6151 233.545 65.098 235.526 69.3193 236.425C69.4601 236.457 69.6116 236.49 69.7523 236.522C69.7523 236.522 74.7746 237.507 79.2233 233.772C83.2499 230.384 89.8633 220.554 88.8783 192.763C88.6835 187.187 93.0348 182.51 98.6091 182.316C104.183 182.142 108.859 186.473 109.054 192.048C110.05 220.218 104.194 239.618 91.6276 249.708C84.3647 255.544 76.7338 256.821 71.43 256.821L71.4192 256.81Z" fill="url(#paint1_linear_52_2)" fill-opacity="0.79"/>
<path d="M152.674 207.292C149.199 207.292 145.811 205.494 143.939 202.268C107.7 139.866 7.17746 93.7468 6.16001 93.2813C1.08354 90.9753 -1.16785 84.9993 1.13766 79.9218C3.43235 74.8444 9.41804 72.5925 14.4945 74.8877C18.8566 76.8689 121.89 124.093 161.398 192.124C164.201 196.942 162.556 203.123 157.739 205.927C156.148 206.858 154.395 207.292 152.685 207.292H152.674Z" fill="url(#paint2_linear_52_2)" fill-opacity="0.79"/>
<path d="M108.675 100.557C114.431 100.557 119.099 95.8889 119.099 90.131C119.099 84.3731 114.431 79.7054 108.675 79.7054C102.918 79.7054 98.2512 84.3731 98.2512 90.131C98.2512 95.8889 102.918 100.557 108.675 100.557Z" fill="url(#paint3_linear_52_2)" fill-opacity="0.79"/>
<defs>
<linearGradient id="paint0_linear_52_2" x1="191.5" y1="0" x2="191.5" y2="280" gradientUnits="userSpaceOnUse">
<stop offset="0.40625" stop-color="#69F339"/>
<stop offset="0.875" stop-color="#0066FF"/>
<stop offset="1" stop-color="#0066FF"/>
</linearGradient>
<linearGradient id="paint1_linear_52_2" x1="191.5" y1="0" x2="191.5" y2="280" gradientUnits="userSpaceOnUse">
<stop offset="0.40625" stop-color="#69F339"/>
<stop offset="0.875" stop-color="#0066FF"/>
<stop offset="1" stop-color="#0066FF"/>
</linearGradient>
<linearGradient id="paint2_linear_52_2" x1="191.5" y1="0" x2="191.5" y2="280" gradientUnits="userSpaceOnUse">
<stop offset="0.40625" stop-color="#69F339"/>
<stop offset="0.875" stop-color="#0066FF"/>
<stop offset="1" stop-color="#0066FF"/>
</linearGradient>
<linearGradient id="paint3_linear_52_2" x1="191.5" y1="0" x2="191.5" y2="280" gradientUnits="userSpaceOnUse">
<stop offset="0.40625" stop-color="#69F339"/>
<stop offset="0.875" stop-color="#0066FF"/>
<stop offset="1" stop-color="#0066FF"/>
</linearGradient>
</defs>
</svg>
